<svg id="Instagram" xmlns="http://www.w3.org/2000/svg" width="22.922" height="23.59" viewBox="0 0 22.922 23.59">
  <g id="Ellipse_5" data-name="Ellipse 5" transform="translate(0 0)" fill="none" stroke="#fff" stroke-width="1">
    <ellipse cx="11.461" cy="11.795" rx="11.461" ry="11.795" stroke="none"/>
    <ellipse cx="11.461" cy="11.795" rx="10.961" ry="11.295" fill="none"/>
  </g>
  <path id="Instagram-2" data-name="Instagram" d="M5.849,1.054c1.562,0,1.747.006,2.364.034a2.2,2.2,0,0,1,2.4,2.4c.029.616.034.8.034,2.363S10.638,7.6,10.61,8.213a2.2,2.2,0,0,1-2.4,2.4c-.617.029-.8.034-2.364.034S4.1,10.64,3.485,10.611a2.2,2.2,0,0,1-2.4-2.4c-.028-.618-.035-.8-.035-2.365s.006-1.746.034-2.363a2.2,2.2,0,0,1,2.4-2.4c.617-.028.8-.034,2.363-.034ZM5.849,0C4.26,0,4.061.007,3.438.035a3.228,3.228,0,0,0-3.4,3.4C.007,4.061,0,4.26,0,5.849S.007,7.636.035,8.26a3.228,3.228,0,0,0,3.4,3.4c.624.029.823.035,2.412.035s1.788-.007,2.412-.035a3.229,3.229,0,0,0,3.4-3.4c.029-.624.036-.823.036-2.412s-.007-1.787-.035-2.411a3.229,3.229,0,0,0-3.4-3.4C7.636.007,7.437,0,5.849,0Zm0,2.845a3,3,0,1,0,3,3,3,3,0,0,0-3-3Zm0,4.953a1.947,1.947,0,1,1,1.38-.569,1.95,1.95,0,0,1-1.38.569ZM8.971,2.025a.7.7,0,1,0,.7.7A.7.7,0,0,0,8.971,2.025Z" transform="translate(5.662 5.662)" fill="#fff"/>
</svg>
