<svg id="Twitter" xmlns="http://www.w3.org/2000/svg" width="22.922" height="23.59" viewBox="0 0 22.922 23.59">
  <g id="Ellipse_3" data-name="Ellipse 3" transform="translate(0 0)" fill="none" stroke="#fff" stroke-width="1">
    <ellipse cx="11.461" cy="11.795" rx="11.461" ry="11.795" stroke="none"/>
    <ellipse cx="11.461" cy="11.795" rx="10.961" ry="11.295" fill="none"/>
  </g>
  <path id="Twitter-2" data-name="Twitter" d="M11.661,3.4a4.671,4.671,0,0,1-1.374.388,2.455,2.455,0,0,0,1.052-1.362,4.711,4.711,0,0,1-1.519.6,2.358,2.358,0,0,0-1.746-.778A2.448,2.448,0,0,0,5.743,5.271,6.73,6.73,0,0,1,.812,2.7a2.509,2.509,0,0,0,.74,3.287A2.331,2.331,0,0,1,.469,5.678,2.449,2.449,0,0,0,2.388,8.123a2.332,2.332,0,0,1-1.081.042,2.4,2.4,0,0,0,2.235,1.71A4.713,4.713,0,0,1,0,10.9,6.634,6.634,0,0,0,3.668,12a6.883,6.883,0,0,0,6.8-7.324A4.952,4.952,0,0,0,11.661,3.4Z" transform="translate(5.662 4.999)" fill="#fff"/>
</svg>
